<svg xmlns="http://www.w3.org/2000/svg" viewBox="0 0 73.7 133.13"><defs><style>.cls-1{fill:#898989;}.cls-2,.cls-4,.cls-6{fill:#1c1b17;}.cls-3{fill:#ffed00;}.cls-4,.cls-6{isolation:isolate;font-family:MyriadPro-Regular, Myriad Pro;}.cls-4{font-size:35px;}.cls-5{letter-spacing:0.01em;}.cls-6{font-size:20px;}</style></defs><title>Asset 1</title><g id="Layer_2" data-name="Layer 2"><g id="Layer_1-2" data-name="Layer 1"><g id="Layer_1-3" data-name="Layer_1"><g id="_2328222224" data-name=" 2328222224"><path class="cls-1" d="M51.09,11.21l3.2,6L63.5,34.33H73.7L64.49,17.17,56.19,1.71ZM38.7,34.33h9.19L43.3,25.77Zm5.94-11.09,6,11.09H60.8L51.59,17.17l-1.85-3.44L47.9,17.17l-3.26,6.07Z"/><path class="cls-2" d="M44.23,0h10.2L45.22,17.17,36,34.33H25.81L35,17.17ZM18.42,0h10.2L19.41,17.17,10.2,34.33H0L9.21,17.17ZM31.33,0h10.2L32.31,17.17,23.1,34.33H12.9l9.22-17.16Z"/><path class="cls-2" d="M29.47,70.87H19.27L28.48,53.7,37.7,36.53H47.9L38.68,53.7Zm25.81,0H45.08L54.29,53.7,63.5,36.53H73.7L64.49,53.7Zm-12.91,0H32.17L41.39,53.7,50.6,36.53H60.8L51.59,53.7Z"/><path class="cls-3" d="M35,36.53H25.81l4.6,8.56Zm-5.94,11.1-6-11.1H12.9L22.12,53.7,24,57.13,25.8,53.7l3.26-6.07Zm-6.45,12-3.2-6L10.2,36.53H0L9.21,53.7l8.3,15.46Z"/><text class="cls-4" transform="translate(8.66 103.42)"><tspan class="cls-5">S</tspan><tspan x="17.46" y="0">ofi</tspan></text><text class="cls-6" transform="translate(9.63 128.13)">DOOR</text><polygon class="cls-2" points="8.65 106.6 65.05 106.6 65.05 108.19 8.65 108.19 8.65 106.6"/></g></g></g></g></svg>