<svg xmlns="http://www.w3.org/2000/svg" viewBox="0 0 100.58 49.98"><defs><style>.cls-1{fill:#898989;}.cls-2,.cls-4,.cls-5{fill:#fff;}.cls-3{fill:#ffed00;}.cls-4,.cls-5{isolation:isolate;font-family:Bauhaus93, Bauhaus 93;}.cls-4{font-size:33.8px;}.cls-5{font-size:14px;}</style></defs><title>Asset 1</title><g id="Layer_2" data-name="Layer 2"><g id="Layer_1-2" data-name="Layer 1"><g id="Layer_1-3" data-name="Layer_1"><g id="_2328222224" data-name=" 2328222224"><path class="cls-1" d="M32.16,7.89l2,4.23L40,24.25h6.42L40.59,12.12,35.37,1.2Zm-7.8,16.29h5.79l-2.9-6.06Zm3.71-7.83,3.78,7.83h6.41L32.47,12.05,31.34,9.66l-1.13,2.39-2.14,4.3Z"/><path class="cls-2" d="M27.82,0h6.42L28.45,12.12,22.66,24.25H16.24L22,12.12ZM11.58,0H18L12.21,12.12,6.42,24.25H0L5.79,12.12ZM19.7,0h6.42L20.33,12.12,14.54,24.25H8.12l5.79-12.13Z"/><path class="cls-2" d="M18.57,50H12.15l5.79-12.13,5.79-12.12h6.42L24.36,37.85ZM34.8,50H28.38l5.79-12.13L40,25.73h6.42L40.59,37.85Zm-8.12,0H20.27l5.79-12.13,5.79-12.12h6.41L32.47,37.85Z"/><path class="cls-3" d="M22,25.73H16.24l2.89,6.06Zm-3.78,7.82-3.77-7.82H8.06l5.79,12.12L15,40.25l1.13-2.4,2.14-4.3Zm-4,8.53-2-4.23L6.42,25.73H0L5.79,37.85,11,48.78Z"/><text class="cls-4" transform="translate(49.77 28.73) scale(0.86 1)">Sofi</text><text class="cls-5" transform="translate(50.58 46.13) scale(0.86 1)">DOOR</text><path class="cls-2" d="M50.46,31.8h49.4a.75.75,0,0,1,.72.77h0a.75.75,0,0,1-.72.78H50.46a.75.75,0,0,1-.72-.78h0A.75.75,0,0,1,50.46,31.8Z"/></g></g></g></g></svg>